{"accessors":[{"bufferView":0,"byteOffset":0,"componentType":5126,"count":4,"max":[3.12,0,1.5],"min":[-3.12,0,-1.5],"normalized":false,"type":"VEC3"},{"bufferView":1,"byteOffset":0,"componentType":5126,"count":4,"max":[0.999969,0,-0.007936,1],"min":[0.999969,0,-0.007936,1],"normalized":false,"type":"VEC4"},{"bufferView":2,"byteOffset":0,"componentType":5126,"count":4,"max":[0,1,0],"min":[0,1,0],"normalized":false,"type":"VEC3"},{"bufferView":3,"byteOffset":0,"componentType":5126,"count":4,"max":[1,1],"min":[0,0],"normalized":false,"type":"VEC2"},{"bufferView":4,"byteOffset":0,"componentType":5125,"count":6,"max":[3],"min":[0],"normalized":false,"type":"SCALAR"},{"bufferView":5,"byteOffset":0,"componentType":5126,"count":4,"max":[20,0,20],"min":[-20,0,-20],"normalized":false,"type":"VEC3"},{"bufferView":6,"byteOffset":0,"componentType":5126,"count":4,"max":[0.999969,0,-0.007936,1],"min":[0.999969,0,-0.007936,1],"normalized":false,"type":"VEC4"},{"bufferView":7,"byteOffset":0,"componentType":5126,"count":4,"max":[0,1,0],"min":[0,1,0],"normalized":false,"type":"VEC3"},{"bufferView":8,"byteOffset":0,"componentType":5126,"count":4,"max":[1,1],"min":[0,0],"normalized":false,"type":"VEC2"},{"bufferView":9,"byteOffset":0,"componentType":5125,"count":6,"max":[3],"min":[0],"normalized":false,"type":"SCALAR"}],"asset":{"generator":"Godot Engine v3.5.1.stable.official@6fed1ffa313c6760fa88b368ae580378daaef0f0","version":"2.0"},"bufferViews":[{"buffer":0,"byteLength":48,"byteOffset":0},{"buffer":0,"byteLength":64,"byteOffset":48},{"buffer":0,"byteLength":48,"byteOffset":112},{"buffer":0,"byteLength":32,"byteOffset":160},{"buffer":0,"byteLength":24,"byteOffset":192},{"buffer":0,"byteLength":48,"byteOffset":216},{"buffer":0,"byteLength":64,"byteOffset":264},{"buffer":0,"byteLength":48,"byteOffset":328},{"buffer":0,"byteLength":32,"byteOffset":376},{"buffer":0,"byteLength":24,"byteOffset":408}],"buffers":[{"byteLength":432,"uri":"Map0.bin"}],"extensionsRequired":["KHR_texture_transform"],"extensionsUsed":["KHR_lights_punctual","KHR_texture_transform"],"images":[{"uri":"textures/_albedo.png"}],"materials":[{"pbrMetallicRoughness":{"baseColorFactor":[1,1,1,1],"baseColorTexture":{"extensions":{"KHR_texture_transform":{"offset":[0,0],"scale":[1,1]}},"index":0},"metallicFactor":0,"roughnessFactor":1}},{"pbrMetallicRoughness":{"baseColorFactor":[0.07036,0.155927,0.035601,1],"metallicFactor":0,"roughnessFactor":1}}],"meshes":[{"extras":{"targetNames":[]},"primitives":[{"attributes":{"NORMAL":2,"POSITION":0,"TANGENT":1,"TEXCOORD_0":3},"indices":4,"material":0,"mode":4}]},{"extras":{"targetNames":[]},"primitives":[{"attributes":{"NORMAL":7,"POSITION":5,"TANGENT":6,"TEXCOORD_0":8},"indices":9,"material":1,"mode":4}]}],"nodes":[{"children":[1,2,3,4,5,6,7],"extensions":{},"name":"Map","translation":[0,0.000389,0]},{"extensions":{},"mesh":0,"name":"Map2"},{"extensions":{},"mesh":1,"name":"Field","translation":[0,-0.001,0]},{"extensions":{},"name":"CollisionShape","translation":[0,-0.1,0]},{"extensions":{},"name":"CollisionShape2","translation":[0,0,-2.2]},{"extensions":{},"name":"CollisionShape3","translation":[0,0,2.2]},{"extensions":{},"name":"CollisionShape4","rotation":[0,0.707107,0,0.707107],"translation":[-4.2,0,0]},{"extensions":{},"name":"CollisionShape5","rotation":[0,0.707107,0,0.707107],"translation":[4.2,0,0]}],"scene":0,"scenes":[{"nodes":[0]}],"textures":[{"source":0}]}